<?xml version="1.0" encoding="iso-8859-1"?>
<!-- Generator: Adobe Illustrator 18.0.0, SVG Export Plug-In . SVG Version: 6.00 Build 0)  -->
<!DOCTYPE svg PUBLIC "-//W3C//DTD SVG 1.1//EN" "http://www.w3.org/Graphics/SVG/1.1/DTD/svg11.dtd">
<svg version="1.1" id="Capa_1" xmlns="http://www.w3.org/2000/svg" xmlns:xlink="http://www.w3.org/1999/xlink" x="0px" y="0px"
	 viewBox="0 0 491.147 491.147" style="enable-background:new 0 0 491.147 491.147;" xml:space="preserve">
<g id="XMLID_1_">
	<path id="XMLID_7_" d="M420.486,434.466H392.67c24.843-41.797,39.852-94.219,39.852-151.467
		c0-64.474-18.924-122.995-49.641-166.941l-7.651-104.437c-0.366-4.688-3.281-8.79-7.613-10.627
		c-4.326-1.836-9.327-1.096-12.954,1.921l-53.441,44.584c-17.576-7.217-36.25-11.12-55.636-11.12
		c-19.38,0-38.073,3.903-55.655,11.12L136.478,2.916c-3.607-3.017-8.596-3.757-12.922-1.921c-4.326,1.837-7.28,5.939-7.606,10.627
		l-7.679,104.437c-30.729,43.946-49.633,102.467-49.633,166.941c0,57.248,15.002,109.67,39.844,151.467H70.66
		c-9.269,0-16.792,7.511-16.792,16.792c0,9.28,7.523,16.79,16.792,16.79h28.63v-31.481c0-0.248,0.065-0.461,0.065-0.709
		c0.392-18.216,15.213-32.875,33.515-32.875c6.15,0,11.837,1.772,16.793,4.655c4.949-2.883,10.643-4.655,16.792-4.655
		c6.143,0,11.837,1.772,16.787,4.655c4.956-2.883,10.643-4.655,16.792-4.655c18.546,0,33.58,15.038,33.58,33.584v30.743v0.738
		h23.924v-0.738v-30.743c0-18.546,15.039-33.584,33.585-33.584c6.149,0,11.824,1.772,16.793,4.655
		c4.968-2.883,10.637-4.655,16.786-4.655c6.15,0,11.824,1.772,16.793,4.655c4.969-2.883,10.644-4.655,16.793-4.655
		c18.301,0,33.123,14.659,33.502,32.875c0.013,0.248,0.077,0.461,0.077,0.709v31.481h28.618c9.282,0,16.793-7.51,16.793-16.79
		C437.279,441.977,429.768,434.466,420.486,434.466z M185.771,224.94C159.927,224.94,139,204,139,178.19
		c0-25.828,20.927-46.782,46.771-46.782c25.805,0,46.732,20.954,46.732,46.782C232.503,204,211.576,224.94,185.771,224.94z
		 M283.171,275.477l-32.352,55.49c-1.098,1.868-3.082,3.016-5.232,3.016c-2.163,0-4.165-1.147-5.244-3.016l-32.354-55.49
		c-2.118-3.643-1.527-8.231,1.458-11.218l29.58-29.596c3.607-3.609,9.481-3.609,13.102,0l29.599,29.596
		C284.698,267.246,285.302,271.833,283.171,275.477z M305.407,224.94c-25.825,0-46.765-20.939-46.765-46.75
		c0-25.828,20.939-46.782,46.765-46.782c25.824,0,46.765,20.954,46.765,46.782C352.172,204,331.232,224.94,305.407,224.94z"/>
	<path id="XMLID_6_" d="M190.592,164.071c-10.56,0-19.123,8.545-19.123,19.103c0,10.576,8.564,19.121,19.123,19.121
		c10.54,0,19.104-8.545,19.104-19.121C209.696,172.617,201.132,164.071,190.592,164.071z"/>
	<path id="XMLID_5_" d="M300.587,164.071c-10.561,0-19.124,8.545-19.124,19.103c0,10.576,8.563,19.121,19.124,19.121
		c10.559,0,19.116-8.545,19.116-19.121C319.703,172.617,311.146,164.071,300.587,164.071z"/>
	<path id="XMLID_2_" d="M199.696,419.78c-9.125,0.18-16.454,7.617-16.454,16.787c0-0.081,0-0.162,0-0.243
		c0.001-9.146-7.413-16.56-16.558-16.56h-0.464c-9.148,0-16.56,7.42-16.558,16.567c0,0.079,0,0.157,0,0.235
		c0-9.17-7.328-16.607-16.453-16.787c-9.421-0.186-17.132,7.805-17.132,17.226v36.898c0,9.424,7.712,17.414,17.132,17.227
		c9.126-0.181,16.453-7.62,16.453-16.786c0,0.078,0,0.155,0,0.233c-0.002,9.148,7.41,16.568,16.558,16.568h0.464
		c9.143,0,16.557-7.412,16.558-16.555c0-0.083,0-0.165,0-0.247c0,9.166,7.328,16.606,16.453,16.786
		c9.421,0.187,17.132-7.805,17.132-17.227v-36.898C216.827,427.584,209.116,419.594,199.696,419.78z"/>
	<path id="XMLID_176_" d="M357.95,419.78c-9.125,0.18-16.453,7.617-16.453,16.787c0-0.081,0-0.162,0-0.243
		c0-9.146-7.413-16.56-16.558-16.56h-0.465c-9.148,0-16.559,7.42-16.557,16.567c0,0.079,0,0.157,0,0.235
		c0-9.17-7.328-16.607-16.454-16.787c-9.421-0.186-17.132,7.805-17.132,17.226v36.898c0,9.424,7.712,17.414,17.133,17.227
		c9.125-0.181,16.453-7.62,16.453-16.786c0,0.078,0,0.155,0,0.233c-0.002,9.148,7.409,16.568,16.557,16.568h0.465
		c9.143,0,16.557-7.412,16.558-16.555c0-0.083,0-0.165,0-0.247c0,9.166,7.328,16.606,16.453,16.786
		c9.421,0.187,17.132-7.805,17.132-17.227v-36.898C375.082,427.584,367.371,419.594,357.95,419.78z"/>
</g>
<g>
</g>
<g>
</g>
<g>
</g>
<g>
</g>
<g>
</g>
<g>
</g>
<g>
</g>
<g>
</g>
<g>
</g>
<g>
</g>
<g>
</g>
<g>
</g>
<g>
</g>
<g>
</g>
<g>
</g>
</svg>
